<svg width="1280" height="720" viewBox="0 0 1280 720" xmlns="http://www.w3.org/2000/svg">
  <defs>
    <linearGradient id="bgB" x1="0" y1="0" x2="1" y2="1">
      <stop offset="0%" stop-color="#0f2d21"/>
      <stop offset="100%" stop-color="#1f6b4d"/>
    </linearGradient>
    <linearGradient id="chipRed" x1="0" y1="0" x2="1" y2="1">
      <stop offset="0%" stop-color="#ff8b8b"/>
      <stop offset="100%" stop-color="#cc1e3c"/>
    </linearGradient>
    <linearGradient id="chipBlue" x1="0" y1="0" x2="1" y2="1">
      <stop offset="0%" stop-color="#a5cbff"/>
      <stop offset="100%" stop-color="#2668c9"/>
    </linearGradient>
    <linearGradient id="chipBlack" x1="0" y1="0" x2="1" y2="1">
      <stop offset="0%" stop-color="#5b6370"/>
      <stop offset="100%" stop-color="#171d29"/>
    </linearGradient>
  </defs>

  <rect width="1280" height="720" rx="34" fill="url(#bgB)"/>
  <ellipse cx="640" cy="378" rx="520" ry="270" fill="#0f3d2a" stroke="#2c8f66" stroke-width="6"/>
  <ellipse cx="640" cy="378" rx="418" ry="208" fill="#145638" stroke="#36aa78" stroke-width="4"/>

  <g transform="translate(248 258) rotate(-8)">
    <rect width="210" height="292" rx="16" fill="#f8fafb" stroke="#d2dbe5" stroke-width="4"/>
    <text x="34" y="58" font-size="44" font-family="Verdana, sans-serif" fill="#d32245" font-weight="700">A</text>
    <text x="96" y="178" font-size="98" font-family="Verdana, sans-serif" fill="#d32245" font-weight="700">H</text>
    <text x="172" y="270" font-size="44" font-family="Verdana, sans-serif" fill="#d32245" font-weight="700">A</text>
  </g>

  <g transform="translate(394 236) rotate(6)">
    <rect width="210" height="292" rx="16" fill="#f8fafb" stroke="#d2dbe5" stroke-width="4"/>
    <text x="30" y="58" font-size="44" font-family="Verdana, sans-serif" fill="#111111" font-weight="700">K</text>
    <text x="92" y="178" font-size="98" font-family="Verdana, sans-serif" fill="#111111" font-weight="700">S</text>
    <text x="170" y="270" font-size="44" font-family="Verdana, sans-serif" fill="#111111" font-weight="700">K</text>
  </g>

  <g transform="translate(700 252)">
    <circle cx="0" cy="0" r="92" fill="url(#chipRed)"/>
    <circle cx="0" cy="0" r="68" fill="#ffcbcf"/>
    <circle cx="0" cy="0" r="38" fill="#cb213f"/>
    <text x="0" y="12" text-anchor="middle" font-size="38" font-family="Verdana, sans-serif" fill="#ffd7dd" font-weight="700">500</text>
  </g>

  <g transform="translate(880 312)">
    <circle cx="0" cy="0" r="82" fill="url(#chipBlue)"/>
    <circle cx="0" cy="0" r="60" fill="#d8e8ff"/>
    <circle cx="0" cy="0" r="33" fill="#276ac8"/>
    <text x="0" y="10" text-anchor="middle" font-size="32" font-family="Verdana, sans-serif" fill="#eaf2ff" font-weight="700">250</text>
  </g>

  <g transform="translate(986 224)">
    <circle cx="0" cy="0" r="66" fill="url(#chipBlack)"/>
    <circle cx="0" cy="0" r="48" fill="#aab1bd"/>
    <circle cx="0" cy="0" r="25" fill="#171d29"/>
    <text x="0" y="8" text-anchor="middle" font-size="24" font-family="Verdana, sans-serif" fill="#e4e8ef" font-weight="700">100</text>
  </g>

  <g transform="translate(820 446)">
    <rect x="0" y="0" width="252" height="146" rx="22" fill="#0f223f" stroke="#4a8df0" stroke-width="4"/>
    <text x="126" y="56" text-anchor="middle" font-size="36" font-family="Verdana, sans-serif" fill="#deebff" font-weight="700">BET NOW</text>
    <text x="126" y="108" text-anchor="middle" font-size="44" font-family="Verdana, sans-serif" fill="#ffdc7e" font-weight="800">$1,200</text>
  </g>

  <text x="640" y="650" text-anchor="middle" font-size="72" font-family="Verdana, sans-serif" fill="#d6f5e8" font-weight="800">CASINO BETTING STYLE</text>
</svg>
